<svg width="24" height="23" viewBox="0 0 24 23" fill="none" xmlns="http://www.w3.org/2000/svg">
<path d="M23.0271 20.4478L17.4886 14.9807C18.9979 13.1586 19.74 10.8335 19.5613 8.48647C19.3827 6.13941 18.2969 3.94992 16.5287 2.37087C14.7605 0.791825 12.4451 -0.0559616 10.0614 0.00286919C7.67772 0.0617 5.40812 1.02265 3.72207 2.68695C2.03602 4.35124 1.06251 6.59156 1.00291 8.9445C0.943307 11.2974 1.80218 13.583 3.40186 15.3284C5.00155 17.0738 7.21966 18.1455 9.5974 18.3218C11.9751 18.4982 14.3306 17.7656 16.1765 16.2758L21.7151 21.7429C21.8901 21.9097 22.1245 22.0021 22.3678 22C22.611 21.9979 22.8438 21.9016 23.0158 21.7317C23.1878 21.5619 23.2854 21.3322 23.2875 21.092C23.2897 20.8519 23.1961 20.6205 23.0271 20.4478ZM10.3086 16.5158C8.84042 16.5158 7.40524 16.086 6.18452 15.2809C4.9638 14.4758 4.01236 13.3314 3.45052 11.9925C2.88869 10.6536 2.74168 9.18033 3.02811 7.75897C3.31453 6.33761 4.02151 5.03201 5.05965 4.00727C6.09779 2.98252 7.42045 2.28466 8.86039 2.00194C10.3003 1.71921 11.7929 1.86432 13.1493 2.4189C14.5057 2.97349 15.665 3.91265 16.4806 5.11762C17.2963 6.32259 17.7317 7.73925 17.7317 9.18846C17.7295 11.1311 16.9467 12.9936 15.555 14.3672C14.1634 15.7409 12.2766 16.5136 10.3086 16.5158Z" fill="#EC762A"/>
</svg>
